# xmcd CD database file
#
# Track frame offsets:
#	150
#	22542
#	35881
#	53509
#	70153
#	89698
#	105592
#	121600
#	134554
#	152863
#	164616
#	177430
#	198039
#	212892
#	236843
#
# Disc length: 3361 seconds
#
# Revision: 0
# Processed by: cddbd v1.5.2PL0 Copyright (c) Steve Scherf et al.
# Submitted via: CDex 1.70beta2
#
DISCID=cd0d1f0f
DTITLE=Dave Harris - Bluesville
DYEAR=2008
DGENRE=Blues
TTITLE0=Bluesville
TTITLE1=If you take me back
TTITLE2=Come back baby
TTITLE3=Nothing in Rambling
TTITLE4=You can't Sell Em' in Here
TTITLE5=Outskirts of Town
TTITLE6=Baby Don't You love me no more
TTITLE7=I'm Through with you
TTITLE8=But I forgive you
TTITLE9=Just Got to Hond you tight
TTITLE10=Sweet to Mama
TTITLE11=Mama Don't Allow Me to Stay out All Night Long
TTITLE12=Going Away and Leave My Baby
TTITLE13=I'm Wild About my Lovin'
TTITLE14=You Do Me any Old Way
EXTD=YEAR: 2008
EXTT0=
EXTT1=
EXTT2=
EXTT3=
EXTT4=
EXTT5=
EXTT6=
EXTT7=
EXTT8=
EXTT9=
EXTT10=
EXTT11=
EXTT12=
EXTT13=
EXTT14=
PLAYORDER=
